<svg id="Capa_1" data-name="Capa 1" xmlns="http://www.w3.org/2000/svg" viewBox="0 0 1201 739"><defs><style>.cls-1{fill:#38d8e5;}.cls-2{fill:#60ada9;}.cls-3{fill:#3a7772;}.cls-4{fill:#289993;}.cls-5{fill:#ebeded;}.cls-6{fill:#5e5e5e;}.cls-7{fill:#fff;}.cls-8{fill:#277c76;}.cls-9{fill:#8e8e8e;}</style></defs><title>notebook</title><rect class="cls-1" x="0.5" y="0.5" width="1200" height="738" rx="18.04"/><path d="M1265,15.5A17.56,17.56,0,0,1,1282.5,33V735A17.56,17.56,0,0,1,1265,752.5H101A17.56,17.56,0,0,1,83.5,735V33A17.56,17.56,0,0,1,101,15.5H1265m0-1H101A18.54,18.54,0,0,0,82.5,33V735A18.54,18.54,0,0,0,101,753.5H1265A18.54,18.54,0,0,0,1283.5,735V33A18.54,18.54,0,0,0,1265,14.5Z" transform="translate(-82.5 -14.5)"/><rect class="cls-2" x="558" y="0.5" width="85" height="738"/><path class="cls-3" d="M725,15.5v737H641V15.5h84m1-1H640v739h86V14.5Z" transform="translate(-82.5 -14.5)"/><polygon class="cls-4" points="643 1 600 46 558 1 643 1"/><polygon class="cls-4" points="643 738 600 693 558 738 643 738"/><rect class="cls-5" x="16" y="13" width="531" height="714" rx="7.09"/><path class="cls-6" d="M622.41,28A6.6,6.6,0,0,1,629,34.59V734.41a6.6,6.6,0,0,1-6.59,6.59H105.59A6.6,6.6,0,0,1,99,734.41V34.59A6.6,6.6,0,0,1,105.59,28H622.41m0-1H105.59A7.59,7.59,0,0,0,98,34.59V734.41a7.59,7.59,0,0,0,7.59,7.59H622.41a7.59,7.59,0,0,0,7.59-7.59V34.59A7.59,7.59,0,0,0,622.41,27Z" transform="translate(-82.5 -14.5)"/><rect class="cls-7" x="27" y="13" width="520" height="717" rx="8.15"/><path class="cls-6" d="M621.35,28A7.66,7.66,0,0,1,629,35.65v700.7a7.66,7.66,0,0,1-7.65,7.65H117.65a7.66,7.66,0,0,1-7.65-7.65V35.65A7.66,7.66,0,0,1,117.65,28h503.7m0-1H117.65A8.65,8.65,0,0,0,109,35.65v700.7a8.65,8.65,0,0,0,8.65,8.65h503.7a8.65,8.65,0,0,0,8.65-8.65V35.65A8.65,8.65,0,0,0,621.35,27Z" transform="translate(-82.5 -14.5)"/><rect class="cls-5" x="653" y="13" width="531" height="714" rx="5.69"/><path class="cls-6" d="M1260.81,28a5.2,5.2,0,0,1,5.19,5.19V735.81a5.2,5.2,0,0,1-5.19,5.19H741.19a5.2,5.2,0,0,1-5.19-5.19V33.19A5.2,5.2,0,0,1,741.19,28h519.62m0-1H741.19A6.19,6.19,0,0,0,735,33.19V735.81a6.19,6.19,0,0,0,6.19,6.19h519.62a6.19,6.19,0,0,0,6.19-6.19V33.19a6.19,6.19,0,0,0-6.19-6.19Z" transform="translate(-82.5 -14.5)"/><rect class="cls-7" x="653" y="13" width="520" height="717" rx="6.38"/><path class="cls-6" d="M1249.12,28a5.89,5.89,0,0,1,5.88,5.88V738.12a5.89,5.89,0,0,1-5.88,5.88H741.88a5.89,5.89,0,0,1-5.88-5.88V33.88A5.89,5.89,0,0,1,741.88,28h507.24m0-1H741.88A6.88,6.88,0,0,0,735,33.88V738.12a6.88,6.88,0,0,0,6.88,6.88h507.24a6.88,6.88,0,0,0,6.88-6.88V33.88a6.88,6.88,0,0,0-6.88-6.88Z" transform="translate(-82.5 -14.5)"/><circle class="cls-4" cx="528" cy="51" r="12.5"/><circle class="cls-4" cx="528" cy="104" r="12.5"/><circle class="cls-4" cx="528" cy="157" r="12.5"/><circle class="cls-4" cx="528" cy="210" r="12.5"/><circle class="cls-4" cx="528" cy="263" r="12.5"/><circle class="cls-8" cx="528" cy="316" r="12.5"/><circle class="cls-8" cx="528" cy="369" r="12.5"/><circle class="cls-8" cx="528" cy="422" r="12.5"/><circle class="cls-8" cx="528" cy="475" r="12.5"/><circle class="cls-8" cx="528" cy="528" r="12.5"/><circle class="cls-8" cx="528" cy="581" r="12.5"/><circle class="cls-8" cx="528" cy="634" r="12.5"/><circle class="cls-8" cx="528" cy="687" r="12.5"/><circle class="cls-4" cx="673" cy="51" r="12.5"/><circle class="cls-4" cx="673" cy="104" r="12.5"/><circle class="cls-4" cx="673" cy="157" r="12.5"/><circle class="cls-4" cx="673" cy="210" r="12.5"/><circle class="cls-4" cx="673" cy="263" r="12.5"/><circle class="cls-8" cx="673" cy="316" r="12.5"/><circle class="cls-8" cx="673" cy="369" r="12.5"/><circle class="cls-8" cx="673" cy="422" r="12.5"/><circle class="cls-8" cx="673" cy="475" r="12.5"/><circle class="cls-8" cx="673" cy="528" r="12.5"/><circle class="cls-8" cx="673" cy="581" r="12.5"/><circle class="cls-8" cx="673" cy="634" r="12.5"/><circle class="cls-8" cx="673" cy="687" r="12.5"/><path class="cls-9" d="M610.5,56.5s95-13,145,0c0,0,8,10,0,17,0,0-72-8-145,0C610.5,73.5,601.5,64.5,610.5,56.5Z" transform="translate(-82.5 -14.5)"/><path class="cls-9" d="M610.5,109.5s95-13,145,0c0,0,8,10,0,17,0,0-72-8-145,0C610.5,126.5,601.5,117.5,610.5,109.5Z" transform="translate(-82.5 -14.5)"/><path class="cls-9" d="M610.5,162.5s95-13,145,0c0,0,8,10,0,17,0,0-72-8-145,0C610.5,179.5,601.5,170.5,610.5,162.5Z" transform="translate(-82.5 -14.5)"/><path class="cls-9" d="M610.5,216.5s95-13,145,0c0,0,8,10,0,17,0,0-72-8-145,0C610.5,233.5,601.5,224.5,610.5,216.5Z" transform="translate(-82.5 -14.5)"/><path class="cls-9" d="M610.5,269.5s95-13,145,0c0,0,8,10,0,17,0,0-72-8-145,0C610.5,286.5,601.5,277.5,610.5,269.5Z" transform="translate(-82.5 -14.5)"/><path class="cls-9" d="M610.5,322.5s95-13,145,0c0,0,8,10,0,17,0,0-72-8-145,0C610.5,339.5,601.5,330.5,610.5,322.5Z" transform="translate(-82.5 -14.5)"/><path class="cls-9" d="M610.5,375.5s95-13,145,0c0,0,8,10,0,17,0,0-72-8-145,0C610.5,392.5,601.5,383.5,610.5,375.5Z" transform="translate(-82.5 -14.5)"/><path class="cls-9" d="M610.5,428.5s95-13,145,0c0,0,8,10,0,17,0,0-72-8-145,0C610.5,445.5,601.5,436.5,610.5,428.5Z" transform="translate(-82.5 -14.5)"/><path class="cls-9" d="M610.5,481.5s95-13,145,0c0,0,8,10,0,17,0,0-72-8-145,0C610.5,498.5,601.5,489.5,610.5,481.5Z" transform="translate(-82.5 -14.5)"/><path class="cls-9" d="M610.5,534.5s95-13,145,0c0,0,8,10,0,17,0,0-72-8-145,0C610.5,551.5,601.5,542.5,610.5,534.5Z" transform="translate(-82.5 -14.5)"/><path class="cls-9" d="M610.5,587.5s95-13,145,0c0,0,8,10,0,17,0,0-72-8-145,0C610.5,604.5,601.5,595.5,610.5,587.5Z" transform="translate(-82.5 -14.5)"/><path class="cls-9" d="M610.5,640.5s95-13,145,0c0,0,8,10,0,17,0,0-72-8-145,0C610.5,657.5,601.5,648.5,610.5,640.5Z" transform="translate(-82.5 -14.5)"/><path class="cls-9" d="M610.5,693.5s95-13,145,0c0,0,8,10,0,17,0,0-72-8-145,0C610.5,710.5,601.5,701.5,610.5,693.5Z" transform="translate(-82.5 -14.5)"/></svg>